<!--?xml version="1.0" encoding="utf-8"?-->
<!-- Generator: Adobe Illustrator 18.1.1, SVG Export Plug-In . SVG Version: 6.00 Build 0)  -->

<svg version="1.1" id="_x32_" xmlns="http://www.w3.org/2000/svg" xmlns:xlink="http://www.w3.org/1999/xlink" x="0px" y="0px" viewBox="0 0 512 512" style="width: 64px; height: 64px; opacity: 1;" xml:space="preserve">
<style type="text/css">
	.st0{fill:#4B4B4B;}
</style>
<g>
	<path class="st0" d="M256,0C114.613,0,0,114.613,0,256s114.613,256,256,256c141.387,0,256-114.613,256-256S397.387,0,256,0z
		 M358.395,285.46H240.596l49.726,47.314c11.782,11.194,12.25,29.863,1.032,41.646c-11.218,11.798-29.863,12.266-41.653,1.032
		L127.709,259.396c-0.927-0.888-1.452-2.113-1.452-3.396c0-1.282,0.524-2.508,1.452-3.395L249.702,136.54
		c11.79-11.226,30.435-10.766,41.653,1.032c11.218,11.79,10.75,30.452-1.032,41.653l-49.726,47.307h117.799
		c16.282,0,29.467,13.185,29.467,29.467S374.678,285.46,358.395,285.46z" style="fill: rgb(255, 255, 255);"></path>
</g>
</svg>
