<!--?xml version="1.0" encoding="utf-8"?-->
<!-- Generator: Adobe Illustrator 18.1.1, SVG Export Plug-In . SVG Version: 6.00 Build 0)  -->

<svg version="1.1" id="_x32_" xmlns="http://www.w3.org/2000/svg" xmlns:xlink="http://www.w3.org/1999/xlink" x="0px" y="0px" viewBox="0 0 512 512" style="width: 64px; height: 64px; opacity: 1;" xml:space="preserve">
<style type="text/css">
	.st0{fill:#4B4B4B;}
</style>
<g>
	<path class="st0" d="M256,0C114.614,0,0,114.613,0,256s114.614,256,256,256c141.387,0,256-114.613,256-256S397.387,0,256,0z
		 M384.29,259.396L262.298,375.46c-11.79,11.226-30.435,10.767-41.653-1.032c-11.218-11.79-10.75-30.452,1.032-41.653l49.726-47.306
		H153.605c-16.282,0-29.467-13.186-29.467-29.468s13.186-29.46,29.467-29.46h117.799l-49.726-47.314
		c-11.782-11.193-12.25-29.863-1.032-41.644c11.218-11.798,29.863-12.267,41.653-1.032L384.29,252.605
		c0.928,0.887,1.452,2.113,1.452,3.395C385.742,257.282,385.218,258.508,384.29,259.396z" style="fill: rgb(255, 255, 255);"></path>
</g>
</svg>
